<?xml version="1.0" encoding="utf-8"?>

<!DOCTYPE svg PUBLIC "-//W3C//DTD SVG 1.1//EN" "http://www.w3.org/Graphics/SVG/1.1/DTD/svg11.dtd">
<svg version="1.1" id="Layer_1" xmlns="http://www.w3.org/2000/svg" xmlns:xlink="http://www.w3.org/1999/xlink" x="0px" y="0px"
	 viewBox="0 0 1204.319 1654.111" enable-background="new 0 0 1204.319 1654.111" xml:space="preserve">
<g>
	<path d="M208.785,354.089c-39.916,3.21-79.093,14.889-117.339,37.227L21.852,227.051L148.9,264.267
		C146.231,302.394,166.249,332.311,208.785,354.089z"/>
	<g>
		<path d="M1182.664,853.373c-157.789-43.315-239.481-180.578-264.611-381.137c-21.169-168.942-63.52-321.18-191.782-393.275
			C536.143-27.908,286.85,26.056,149.204,262.795l1.278,0.375c-3.17,45.224,23.279,71.306,63.689,91.996
			c-43.5,3.489-81.124,13.591-123.44,38.307l-0.54-1.274c-54.134,162.471-36.508,330.582,53.45,501.231
			c60.391,114.561,165.091,186.067,287.388,218.882c37.82,79.182,93.878,224.667,151.405,375.492l-248.485-0.56
			c-5.636-0.013-7.607,7.476-2.695,10.239c1.686,0.948-8.637,0.194,161.357,7.921l-79.436,34.874
			c-7.667,3.366-7.652,14.248,0.023,17.593v0c2.277,0.992,4.85,1.064,7.179,0.199l118.965-44.17h124.752
			c6.717,0,8.354-9.354,2.036-11.635l-11.477-4.144l-33.38-1.214c0,0-140.431-316.51-128.352-371.487
			c41.773,6.608,84.961,9.145,128.632,7.734l169.65,386.806c0.006,0.014,0.004,32.112,0.004,32.127
			c0,0.074-212.946,0.048-213.02,0.048c-0.012-0.001-31.362-4.599-31.374-4.601c-4.656-0.683-7.206,5.25-3.502,8.153
			c6.939,5.438,16.706,11.014,27.59,11.014c11.699,0,144.048,3.868,143.048,4.333c-0.06,0.028-101.177,47.231-101.164,47.296
			c0.172,0.855,3.341,14.216,31.551,4.813c29.026-9.675,111.677-42.849,112.274-43.089c0.061-0.025,155.96,4.892,155.992,4.826
			c0.322-0.658,5.871-12.816-22.47-16.359c-29.131-3.641-52.194,3.641-75.256-50.98c-22.872-54.171-134.09-330.999-127.635-389.433
			C877.936,1105.084,1068.772,1009.343,1182.664,853.373z M472.043,383.076c-26.788,4.198-7.846-68.125-55.949-86.26
			c-36.617-13.808-85.76,26.54-86.251,26.948c-12.316,10.242-27.869-8.349-15.555-18.638
			C449.949,191.809,504.749,377.929,472.043,383.076z M525.991,740.084c-23.509-130.421,38.033-218.486,132.71-208.776
			c78.709,8.073,104.987,66.576,142.42,143.23c50.587,103.589,136.264,180.508,242.762,237.098
			C769,979.627,562.528,942.78,525.991,740.084z"/>
	</g>
</g>
</svg>
